<?xml version="1.0" encoding="UTF-8" standalone="no"?>
<svg
   xmlns:svg="http://www.w3.org/2000/svg"
   xmlns="http://www.w3.org/2000/svg"
   version="1.1"
   id="svg5064"
   viewBox="0 0 476.01997 404.625"
   height="114.19417mm"
   width="134.34341mm">
  <defs
     id="defs5066" />
  <g
     transform="translate(-53.418596,-232.90685)"
     id="layer1">
    <path
       id="path28"
       style="fill:#fffa00;fill-opacity:1;fill-rule:nonzero;stroke:none"
       d="m 53.418596,461.50239 476.019954,0 0,176.02946 -476.019954,0 0,-176.02946 z" />
    <path
       id="path30"
       style="fill:#000000;fill-opacity:1;fill-rule:nonzero;stroke:none"
       d="m 53.418596,232.90685 476.019954,0 0,210.74176 -476.019954,0 0,-210.74176 z" />
    <path
       id="path46"
       d="m 204.2458,255.7255 c -10.5303,0 -19.35156,8.8115 -19.35156,19.3418 0,10.5303 8.82126,19.3457 19.35156,19.3457 10.52528,0 19.3418,-8.8154 19.3418,-19.3457 0,-10.5303 -8.81652,-19.3418 -19.3418,-19.3418 z m 145.68555,49.56641 c -20.95003,0 -32.87305,17.72279 -32.87305,43.01562 0,31.58085 14.82827,45.11719 32.87305,45.11719 8.05228,0 13.69274,-3.38427 17.88476,-7.09375 1.2968,20.47251 -17.33686,19.96594 -34.43164,19.96094 l -0.18555,0.2207 3.49805,18.55664 c 29.90204,0.47249 54.6414,-6.9806 53.34961,-47.75976 l 0,-70.24414 -22.15625,0 -0.0742,4.83593 c -4.03117,-3.70947 -10.47585,-6.60937 -17.88476,-6.60937 z m -80.6836,0.17383 c -21.42752,0 -37.70312,18.20022 -37.70312,44.14648 0,26.74044 15.46604,43.98047 39.79883,43.98047 12.18901,0 21.74339,-4.32725 27.13672,-8.49414 l -3.41211,-16.97461 -0.38282,-0.0996 c -6.90626,5.74516 -36.60546,15.11268 -40.74218,-11.32617 l 50.58984,0 c 0.16085,-1.61348 0.32227,-3.86904 0.32227,-7.08594 0,-24.17195 -13.05398,-44.14648 -35.60743,-44.14648 z m 173.66211,0.19336 c -11.67608,0.12353 -23.20293,3.61217 -28.9082,7.31836 l 3.16797,16.99023 0.32617,0.0957 c 25.00131,-12.97816 37.63281,-4.86052 37.63281,4.82032 l 0,4.1875 c -3.54863,-1.76929 -8.5448,-3.38282 -16.27539,-3.38282 -19.17571,0 -34.32031,9.34395 -34.32031,28.03711 0,20.46247 15.79215,30.12696 31.58008,30.12696 7.89646,0 14.98445,-3.22708 19.01562,-7.41407 l 0.19141,5.64063 22.03906,0 0,-55.56641 c 0,-24.02461 -17.38418,-31.03406 -34.44922,-30.85351 z m -347.701174,1.57617 30.451174,84.58398 22.87891,0 30.45117,-84.58398 -23.8457,0 -12.40625,39.15039 c -2.09099,6.60469 -4.34631,14.34036 -5.31641,18.52734 -0.96506,-4.02615 -3.22235,-12.0835 -5.31836,-18.52734 l -12.40625,-39.15039 -24.488284,0 z m 97.591804,0 0,84.58398 22.88672,0 0,-84.58398 -22.88672,0 z m 75.3164,17.56055 c 9.98745,0 14.50116,7.56975 15.14453,15.14453 l -28.99804,0 c 0.80422,-8.53985 5.80123,-15.14453 13.85351,-15.14453 z m 84.39258,1.61132 c 6.44888,0 11.60161,2.57741 14.98438,7.25196 l 0,31.89843 c -3.22192,4.19202 -6.76503,7.08789 -13.69141,7.08789 -8.7007,0 -14.50781,-7.249 -14.50781,-24.65039 0,-14.17443 4.67499,-21.58789 13.21484,-21.58789 z m 87.04297,26.42578 c 7.9015,0 11.60038,1.12527 15.4707,3.54297 l 0,10.63086 c -2.4177,4.03118 -8.21761,7.73633 -15.4707,7.73633 -9.50491,0 -12.88867,-5.318 -12.88867,-11.2793 0,-6.76553 4.50967,-10.63086 12.88867,-10.63086 z"
       style="fill:#fffa00;fill-opacity:1;stroke:#fffa00;stroke-width:3.35763335;stroke-linecap:butt;stroke-linejoin:miter;stroke-miterlimit:4;stroke-dasharray:none;stroke-opacity:1" />
  </g>
</svg>
